<svg xmlns="http://www.w3.org/2000/svg" xmlns:xlink="http://www.w3.org/1999/xlink" width="500" zoomAndPan="magnify" viewBox="0 0 375 374.999991" height="500" preserveAspectRatio="xMidYMid meet" version="1.0"><defs><g/></defs><path fill="#d9d9d9" d="M 311.496094 44.589844 C 307.335938 33.183594 300.675781 23.199219 290.4375 16.289062 C 286.027344 13.292969 280.867188 11.378906 277.453125 6.882812 C 277.203125 6.550781 276.703125 6.300781 276.289062 6.050781 C 266.882812 0.0585938 257.0625 0.226562 246.988281 4.054688 C 236.503906 8.050781 228.761719 15.375 221.9375 23.863281 C 219.691406 26.609375 217.027344 27.691406 213.613281 27.609375 C 211.199219 27.527344 208.785156 27.859375 206.457031 28.273438 C 202.542969 29.023438 198.714844 30.023438 194.804688 30.9375 C 192.886719 31.355469 191.472656 31.6875 190.308594 31.855469 C 185.648438 33.269531 180.984375 34.515625 176.242188 34.933594 C 175.492188 35.265625 174.492188 35.515625 173.328125 35.765625 C 168.417969 36.929688 163.425781 38.011719 158.597656 39.429688 C 152.1875 41.257812 145.445312 41.925781 139.617188 45.835938 C 138.453125 46.585938 136.371094 46.417969 134.875 46.167969 C 132.792969 45.835938 130.714844 45.085938 128.714844 44.421875 C 120.890625 41.757812 112.984375 40.34375 104.660156 41.757812 C 91.511719 43.921875 78.859375 55.324219 78.027344 67.894531 C 77.941406 68.890625 77.277344 70.140625 76.445312 70.808594 C 71.367188 75.382812 67.957031 80.960938 65.957031 87.371094 C 64.460938 92.28125 63.292969 97.273438 61.796875 102.1875 C 52.890625 130.816406 49.394531 159.949219 53.390625 189.746094 C 54.972656 201.316406 54.972656 212.804688 53.472656 224.289062 C 53.304688 225.703125 53.304688 227.203125 53.390625 228.617188 C 53.890625 235.277344 55.96875 236.941406 62.546875 236.359375 C 63.042969 236.273438 63.460938 236.359375 64.292969 236.359375 L 64.292969 252.671875 C 68.539062 239.105469 66.789062 225.453125 64.710938 211.386719 C 65.875 212.136719 66.707031 212.554688 67.371094 213.21875 C 72.949219 218.128906 76.859375 224.207031 77.609375 231.613281 C 78.609375 241.351562 79.273438 251.171875 79.273438 260.996094 C 79.273438 279.058594 78.777344 297.117188 78.109375 315.179688 C 77.527344 329.914062 76.613281 344.644531 72.035156 358.960938 C 71.285156 361.207031 71.117188 363.789062 71.285156 366.117188 C 71.535156 371.527344 75.777344 374.941406 81.105469 374.609375 C 87.433594 374.191406 92.09375 368.617188 92.007812 361.042969 C 92.007812 357.046875 91.511719 353.050781 91.011719 349.140625 C 85.933594 311.765625 85.101562 274.144531 86.265625 236.523438 C 86.351562 232.777344 86.683594 228.867188 87.679688 225.289062 C 89.347656 219.542969 93.675781 215.964844 99.417969 212.636719 C 97.503906 229.53125 95.753906 245.597656 100.082031 261.410156 C 100.417969 260.164062 100.417969 258.914062 100.332031 257.664062 C 100.25 256.417969 100.082031 255.167969 100.082031 253.921875 C 100.082031 240.1875 102.914062 226.953125 107.242188 213.96875 C 110.070312 205.476562 111.984375 196.988281 111.570312 187.75 C 111.070312 175.847656 111.820312 163.863281 112.070312 151.875 C 112.070312 151.292969 112.234375 150.710938 112.320312 150.128906 C 113.484375 155.703125 114.066406 161.28125 114.398438 166.859375 C 114.980469 176.261719 115.398438 185.667969 115.980469 195.074219 C 116.148438 197.488281 116.5625 199.820312 119.558594 201.398438 L 123.636719 165.277344 C 126.800781 168.191406 128.132812 171.601562 128.300781 175.265625 C 128.882812 191.746094 133.460938 207.558594 136.039062 224.039062 C 136.289062 223.039062 136.621094 222.292969 136.707031 221.460938 C 136.957031 217.796875 137.289062 214.132812 137.289062 210.390625 C 137.207031 202.730469 136.789062 195.074219 136.871094 187.332031 C 136.957031 183.503906 137.621094 179.59375 138.453125 175.847656 C 138.621094 174.933594 140.203125 173.683594 141.199219 173.601562 C 148.691406 173.183594 153.519531 177.011719 154.601562 184.421875 C 157.429688 202.980469 157.597656 221.542969 153.769531 240.101562 C 153.101562 243.433594 152.769531 246.84375 152.769531 250.175781 C 152.769531 252.753906 153.933594 255.003906 156.847656 255.5 C 159.761719 256.085938 162.007812 254.417969 162.757812 251.839844 C 163.839844 248.175781 164.421875 244.347656 164.671875 240.519531 C 164.839844 237.855469 163.921875 235.191406 163.589844 232.445312 C 161.675781 215.300781 162.34375 198.070312 163.257812 180.925781 C 163.589844 174.847656 163.921875 168.605469 168.335938 163.695312 C 178.574219 152.210938 181.152344 138.558594 179.738281 123.742188 C 179.65625 123.160156 179.738281 122.578125 179.738281 121.996094 C 180.902344 123.078125 181.570312 124.242188 181.984375 125.492188 C 185.148438 133.980469 185.066406 142.804688 184.816406 151.625 C 184.480469 168.441406 184.480469 185.253906 184.398438 201.984375 C 184.398438 202.730469 184.648438 203.5625 184.816406 204.3125 L 185.5625 204.3125 C 185.8125 202.730469 186.148438 201.148438 186.3125 199.570312 C 186.730469 194.65625 186.980469 189.664062 187.476562 184.753906 C 188.644531 174.265625 189.558594 163.695312 194.386719 153.957031 C 195.550781 151.625 196.300781 148.878906 196.21875 146.382812 C 196.132812 142.386719 195.21875 138.390625 194.71875 134.398438 C 194.636719 133.480469 194.96875 132.484375 195.300781 131.566406 C 195.386719 131.402344 196.96875 131.566406 197.300781 131.984375 C 200.046875 135.8125 203.292969 139.472656 205.039062 143.71875 C 207.039062 148.464844 208.035156 153.789062 208.703125 158.949219 C 210.449219 172.933594 211.78125 186.917969 213.363281 200.984375 C 213.445312 201.816406 213.695312 202.648438 213.863281 203.398438 C 214.695312 202.316406 214.863281 201.398438 214.945312 200.484375 C 215.277344 186.5 215.527344 172.519531 215.859375 158.535156 C 215.945312 156.539062 216.109375 154.457031 216.527344 152.457031 C 217.191406 149.796875 218.941406 148.964844 221.019531 150.710938 C 222.9375 152.375 225.101562 154.707031 225.515625 157.121094 C 226.679688 163.613281 227.265625 170.1875 227.511719 176.761719 C 227.761719 184.753906 227.179688 192.742188 227.429688 200.652344 C 227.597656 203.898438 228.679688 207.308594 230.175781 210.222656 C 231.675781 213.136719 234.503906 212.96875 236.503906 210.222656 C 238.667969 207.308594 238.917969 203.980469 238.332031 200.484375 C 237.003906 192.578125 235.171875 184.671875 234.421875 176.597656 C 233.839844 170.269531 234.339844 163.777344 234.671875 157.453125 C 234.753906 155.207031 235.503906 153.042969 237.917969 151.625 C 240.832031 149.960938 243.742188 148.046875 246.15625 145.71875 C 249.152344 142.804688 251.734375 139.390625 254.8125 135.8125 C 255.480469 142.386719 256.394531 148.628906 256.8125 154.871094 C 257.144531 161.03125 256.894531 167.273438 256.894531 173.433594 C 257.226562 173.515625 257.476562 173.515625 257.808594 173.601562 C 258.394531 170.269531 259.476562 166.859375 259.558594 163.527344 C 259.972656 152.542969 259.972656 141.554688 260.390625 130.652344 C 260.472656 128.238281 261.390625 125.824219 262.136719 123.492188 C 262.804688 121.414062 263.804688 119.5 264.636719 117.417969 L 264.054688 117.167969 C 263.21875 119.082031 262.304688 120.996094 261.472656 122.828125 C 261.390625 119.832031 260.890625 116.585938 261.972656 114.089844 C 264.800781 107.761719 264.636719 101.4375 263.71875 95.609375 C 258.976562 93.777344 254.316406 92.695312 250.402344 90.285156 C 235.085938 80.792969 229.59375 62.816406 237.5 45.171875 C 238.667969 42.589844 241.496094 40.675781 243.496094 38.511719 C 243.910156 38.761719 244.242188 39.09375 244.660156 39.34375 C 243.828125 40.59375 243.328125 42.339844 242.164062 43.089844 C 238.917969 45.253906 237.25 48.25 236.585938 51.914062 C 235.253906 58.570312 235.585938 64.980469 237.667969 71.640625 C 241.246094 82.875 251.070312 91.449219 262.804688 91.78125 C 277.285156 92.199219 286.609375 83.457031 294.597656 72.804688 C 294.683594 72.636719 294.597656 72.386719 294.683594 72.222656 C 290.9375 66.726562 284.945312 69.226562 280.367188 78.296875 C 276.789062 71.222656 273.375 68.144531 268.046875 68.558594 C 260.640625 69.140625 254.730469 72.472656 252.734375 81.292969 C 252.316406 79.960938 252.152344 79.628906 252.066406 79.128906 C 251.234375 73.886719 251.234375 73.96875 245.992188 72.886719 C 245.160156 72.722656 244.492188 71.554688 243.742188 70.890625 L 244.242188 69.726562 C 247.65625 69.972656 251.152344 69.890625 254.5625 70.472656 C 257.644531 70.972656 259.390625 69.808594 260.558594 67.226562 C 261.222656 65.8125 261.890625 64.480469 262.472656 63.234375 C 265.550781 63.234375 268.382812 63.066406 271.128906 63.316406 C 272.210938 63.398438 273.542969 64.230469 274.289062 65.0625 C 276.789062 68.058594 279.367188 70.308594 283.695312 69.308594 C 286.027344 68.808594 288.523438 68.726562 290.9375 68.726562 C 294.933594 68.808594 297.261719 66.644531 298.59375 63.148438 C 301.007812 56.742188 300.175781 50.582031 297.179688 44.589844 C 296.265625 42.675781 295.015625 41.675781 292.933594 41.925781 C 288.191406 42.339844 283.445312 42.839844 279.367188 43.171875 C 283.53125 41.59375 285.195312 37.511719 285.609375 32.851562 C 285.777344 31.269531 284.945312 29.023438 283.777344 28.023438 C 277.121094 22.699219 269.546875 20.699219 261.140625 22.863281 C 259.476562 23.28125 257.894531 24.113281 256.3125 24.695312 C 256.0625 24.445312 255.894531 24.195312 255.644531 23.863281 C 256.394531 23.199219 256.976562 22.28125 257.808594 21.867188 C 264.21875 18.871094 270.710938 18.621094 277.203125 21.699219 C 278.535156 22.28125 280.035156 22.449219 281.449219 22.863281 C 281.949219 23.53125 282.53125 24.363281 283.28125 25.113281 C 285.027344 26.859375 286.859375 28.609375 288.691406 30.355469 C 288.941406 30.605469 289.105469 30.773438 289.355469 31.019531 C 299.425781 36.929688 304.921875 53.660156 300.507812 65.398438 C 295.183594 79.546875 284.859375 88.203125 270.628906 92.613281 C 268.296875 93.363281 267.464844 94.277344 267.546875 96.859375 C 267.714844 103.269531 267.464844 109.675781 267.214844 116.085938 C 266.882812 125.65625 265.882812 135.3125 266.132812 144.882812 C 266.550781 160.53125 266.882812 176.179688 264.886719 191.746094 C 264.386719 195.90625 265.136719 200.066406 268.382812 202.980469 C 270.792969 205.144531 271.292969 207.558594 270.878906 210.554688 C 270.628906 212.636719 270.628906 214.800781 270.546875 216.964844 C 270.960938 217.046875 271.378906 217.132812 271.792969 217.214844 C 272.210938 216.296875 272.875 215.382812 272.957031 214.46875 C 273.375 209.058594 273.875 203.648438 273.792969 198.238281 C 273.707031 190.664062 272.792969 183.089844 272.792969 175.515625 C 272.792969 169.355469 273.542969 163.277344 273.957031 157.121094 C 274.457031 157.035156 274.957031 156.953125 275.457031 156.871094 C 276.371094 159.535156 277.535156 162.03125 278.121094 164.777344 C 278.703125 167.523438 278.867188 170.355469 279.117188 173.183594 L 280.117188 173.183594 C 280.78125 170.019531 281.449219 166.859375 282.113281 163.777344 C 282.449219 163.777344 282.695312 163.777344 283.03125 163.777344 C 283.363281 165.359375 283.777344 166.859375 284.027344 168.441406 C 284.859375 174.015625 285.527344 179.59375 286.359375 185.167969 C 286.441406 185.835938 286.859375 186.417969 287.023438 187.082031 C 287.273438 187 287.523438 187 287.773438 186.917969 L 287.773438 166.191406 C 290.855469 168.523438 294.433594 169.523438 295.765625 173.515625 C 299.011719 183.171875 300.09375 193.078125 299.761719 203.148438 C 299.261719 219.046875 298.429688 235.027344 297.929688 250.921875 C 297.761719 255.253906 298.179688 259.664062 298.511719 263.992188 C 298.761719 266.65625 300.257812 268.652344 303.007812 269.070312 C 305.753906 269.484375 308 267.988281 308.664062 265.488281 C 309.414062 262.660156 309.832031 259.496094 309.164062 256.75 C 306.417969 246.097656 305.085938 235.359375 305.335938 224.457031 C 305.667969 211.804688 306.335938 199.234375 307.085938 186.585938 C 307.667969 176.597656 309.082031 167.191406 315.40625 158.453125 C 321.816406 149.628906 323.480469 138.558594 324.398438 127.738281 C 326.894531 99.1875 321.316406 71.554688 311.496094 44.589844 Z M 260.222656 77.796875 C 261.390625 76.132812 263.136719 74.300781 265.882812 75.71875 C 266.382812 75.96875 267.300781 75.550781 268.046875 75.382812 C 270.792969 74.636719 273.457031 75.882812 274.539062 78.464844 C 275.621094 80.960938 274.625 83.457031 271.875 84.625 C 269.628906 85.539062 267.050781 85.957031 263.804688 86.871094 C 262.304688 85.789062 259.890625 84.957031 259.140625 83.292969 C 258.476562 81.875 259.226562 79.296875 260.222656 77.796875 Z M 75.445312 93.863281 C 78.441406 83.542969 84.769531 75.71875 94.421875 70.972656 C 106.574219 64.980469 122.140625 70.222656 129.296875 82.292969 C 130.628906 84.539062 131.628906 86.953125 132.792969 89.285156 C 132.542969 89.535156 132.292969 89.785156 131.960938 89.949219 C 131.378906 89.285156 130.628906 88.703125 130.128906 87.953125 C 128.550781 85.539062 127.300781 82.792969 125.386719 80.710938 C 123.636719 78.964844 121.140625 77.964844 118.394531 76.300781 C 118.144531 73.71875 115.730469 72.472656 112.816406 71.472656 C 106.242188 69.308594 100 70.222656 93.839844 72.972656 C 93.089844 73.304688 92.59375 74.300781 91.761719 75.21875 C 87.765625 77.050781 84.433594 80.128906 82.105469 84.207031 C 81.855469 84.707031 82.355469 86.371094 82.605469 86.371094 C 83.769531 86.453125 84.933594 86.203125 86.847656 85.957031 C 86.847656 85.957031 87.347656 86.539062 87.765625 87.121094 C 87.347656 87.453125 87.265625 87.703125 87.097656 87.703125 C 86.433594 87.785156 85.765625 87.871094 85.101562 87.871094 C 78.191406 88.035156 75.195312 91.863281 76.363281 98.773438 C 76.527344 99.855469 76.777344 100.855469 77.027344 101.9375 L 76.363281 102.601562 C 75.695312 101.9375 74.53125 101.269531 74.613281 100.605469 C 74.695312 98.441406 74.863281 96.027344 75.445312 93.863281 Z M 65.707031 184.917969 C 63.792969 174.847656 64.625 164.695312 65.875 154.707031 C 67.039062 144.96875 69.121094 135.394531 70.867188 125.742188 C 70.953125 125.242188 71.203125 124.824219 71.617188 123.410156 C 72.699219 124.742188 73.53125 125.574219 74.113281 126.574219 C 80.105469 135.8125 78.109375 145.71875 76.445312 155.621094 C 74.863281 165.109375 73.449219 174.597656 71.785156 184.085938 C 70.203125 193.410156 73.367188 200.902344 80.691406 206.726562 C 81.023438 206.976562 81.273438 207.226562 81.523438 207.558594 C 81.605469 207.726562 81.6875 207.890625 81.9375 208.308594 C 70.953125 204.148438 67.621094 194.992188 65.707031 184.917969 Z M 78.109375 189.414062 C 78.527344 182.089844 78.941406 174.765625 79.359375 167.523438 L 80.105469 167.523438 C 79.609375 174.847656 79.109375 182.089844 78.609375 189.414062 C 78.441406 189.414062 78.277344 189.414062 78.109375 189.414062 Z M 99.917969 185.585938 C 99.75 187 98.75 188.25 98.003906 189.996094 C 92.507812 179.09375 92.675781 144.300781 98.085938 138.890625 C 98.167969 139.890625 98.335938 140.722656 98.417969 141.554688 C 99.25 152.457031 100.167969 163.445312 100.75 174.347656 C 100.914062 178.011719 100.417969 181.839844 99.917969 185.585938 Z M 77.359375 103.019531 C 84.101562 114.335938 94.171875 121.496094 105.242188 127.820312 C 96.171875 129.070312 75.195312 110.59375 77.359375 103.019531 Z M 112.902344 102.1875 C 113.402344 105.847656 113.648438 109.261719 114.316406 112.671875 C 114.816406 115.417969 113.898438 116.667969 111.320312 117.167969 C 108.40625 117.75 105.492188 118.332031 102.164062 119 C 101.664062 114.171875 101.25 109.675781 100.75 104.847656 C 96.003906 105.765625 91.59375 106.679688 86.515625 107.679688 C 85.765625 104.101562 84.933594 100.769531 84.601562 97.359375 C 84.519531 96.609375 86.101562 95.195312 87.097656 95.027344 C 90.679688 94.277344 94.339844 93.863281 98.167969 93.28125 C 97.253906 88.617188 96.421875 84.289062 95.503906 79.296875 C 99.832031 78.296875 103.828125 77.382812 108.324219 76.382812 C 108.824219 81.292969 109.320312 85.789062 109.90625 90.949219 C 113.316406 90.367188 116.648438 89.785156 119.894531 89.203125 C 124.222656 88.453125 124.304688 88.453125 125.21875 92.78125 C 125.636719 94.613281 125.886719 96.441406 126.21875 98.191406 C 126.300781 98.441406 126.136719 98.773438 126.050781 99.273438 C 121.808594 100.1875 117.5625 101.1875 112.902344 102.1875 Z M 161.175781 159.867188 C 155.765625 164.445312 148.859375 165.609375 141.867188 164.195312 C 128.300781 161.449219 118.0625 150.128906 116.480469 136.3125 C 115.066406 123.992188 125.054688 110.175781 137.539062 107.511719 C 132.042969 109.511719 127.714844 113.253906 123.886719 117.582031 C 119.144531 122.992188 117.3125 129.320312 118.644531 136.226562 C 119.308594 139.640625 121.558594 142.804688 122.554688 146.214844 C 124.46875 152.875 131.046875 152.875 135.625 155.621094 C 139.953125 158.203125 144.863281 160.53125 150.023438 158.535156 C 154.851562 156.621094 160.34375 154.789062 163.589844 151.128906 C 168.335938 145.800781 171.496094 138.890625 170.996094 131.152344 C 170.832031 128.488281 170.5 125.742188 170.75 122.828125 C 171.414062 124.492188 172.414062 126.074219 172.746094 127.820312 C 175.078125 140.640625 171 151.542969 161.175781 159.867188 Z M 155.683594 114.921875 C 157.347656 115.917969 158.679688 117.582031 160.175781 118.914062 C 161.425781 120.082031 162.757812 121.246094 163.921875 122.496094 C 164.503906 123.078125 165.089844 123.828125 165.339844 124.574219 C 166.667969 129.734375 166.003906 134.730469 164.007812 139.640625 C 163.671875 140.472656 163.089844 141.304688 163.175781 142.054688 C 163.257812 146.214844 160.59375 147.964844 157.347656 149.378906 C 156.433594 149.796875 155.515625 150.128906 154.765625 150.710938 C 149.941406 154.621094 145.027344 154.289062 139.703125 151.710938 C 136.039062 149.878906 132.210938 148.546875 129.214844 147.296875 C 127.964844 143.96875 127.550781 141.222656 126.136719 139.058594 C 122.222656 133.148438 123.636719 127.820312 127.132812 122.578125 C 133.375 112.921875 146.109375 109.34375 155.683594 114.921875 Z M 174.910156 106.265625 L 176.90625 105.765625 C 177.074219 106.015625 177.15625 106.179688 177.324219 106.429688 C 175.410156 107.511719 173.660156 109.34375 171.664062 109.59375 C 168.832031 109.925781 167.585938 111.257812 166.585938 113.503906 C 166.421875 113.921875 166.085938 114.335938 165.503906 115.335938 C 163.671875 112.671875 162.09375 110.34375 160.511719 107.929688 C 159.511719 106.429688 159.84375 104.847656 161.507812 104.433594 C 166.085938 103.269531 170.664062 102.351562 175.324219 101.519531 C 175.992188 101.4375 176.824219 102.101562 178.15625 102.683594 C 176.574219 104.101562 175.574219 105.015625 174.578125 105.847656 C 174.742188 105.929688 174.828125 106.097656 174.910156 106.265625 Z M 202.792969 90.867188 C 205.457031 88.953125 208.285156 88.453125 211.699219 89.785156 C 208.621094 93.363281 205.957031 96.527344 203.125 99.773438 C 202.292969 99.4375 201.128906 99.023438 199.796875 98.523438 C 198.796875 95.359375 200.128906 92.78125 202.792969 90.867188 Z M 248.570312 114.753906 C 248.40625 116.335938 247.574219 117.917969 246.65625 119.25 C 243.992188 123.242188 243.160156 127.65625 243.496094 133.480469 C 244.742188 131.984375 245.742188 131.234375 246.242188 130.152344 C 248.488281 125.40625 250.984375 120.746094 252.816406 115.835938 C 255.3125 109.011719 253.480469 102.683594 249.652344 96.777344 C 249.238281 96.191406 248.738281 95.609375 248.488281 94.945312 C 253.148438 98.691406 255.0625 103.765625 255.5625 109.511719 C 255.894531 113.089844 256.144531 116.585938 253.730469 119.832031 C 252.316406 121.746094 251.316406 124.078125 250.652344 126.40625 C 246.824219 139.640625 228.679688 147.046875 213.53125 137.808594 C 204.125 132.066406 198.296875 118.664062 200.960938 108.59375 C 201.128906 108.011719 201.378906 107.429688 201.542969 106.761719 C 201.960938 111.425781 201.128906 116.167969 204.375 120.414062 C 203.707031 122.828125 205.625 124.324219 207.453125 125.824219 C 208.871094 127.074219 210.449219 128.238281 211.617188 129.734375 C 215.527344 134.730469 225.433594 137.726562 232.257812 135.8125 C 233.921875 135.394531 235.753906 135.5625 237.585938 135.480469 L 237.75 136.394531 C 239.414062 135.3125 241.082031 134.230469 242.746094 133.148438 C 239.75 129.902344 236.585938 128.988281 233.339844 130.402344 C 229.761719 131.984375 226.347656 131.816406 222.6875 130.734375 C 213.78125 128.238281 209.953125 121.164062 207.203125 113.503906 C 205.707031 109.261719 207.121094 104.515625 209.953125 100.855469 C 215.527344 93.613281 223.019531 90.035156 232.175781 91.613281 C 244.242188 93.613281 250.152344 102.769531 248.570312 114.753906 Z M 254.480469 64.8125 C 254.398438 66.480469 253.480469 67.394531 251.566406 67.3125 C 248.65625 67.144531 245.742188 67.3125 242.828125 66.976562 C 241.914062 66.894531 240.496094 65.5625 240.496094 64.8125 C 240.496094 61.152344 240.664062 57.488281 241.332031 53.910156 C 241.496094 53.078125 243.410156 52.078125 244.660156 51.996094 C 247.90625 51.746094 251.234375 51.914062 255.230469 51.914062 C 254.980469 56.742188 254.8125 60.734375 254.480469 64.8125 Z M 279.203125 56.15625 C 279.699219 47.003906 278.367188 47.003906 288.691406 46.917969 C 291.269531 46.917969 292.933594 48 293.683594 50.496094 C 294.183594 52.078125 294.683594 53.660156 294.847656 55.242188 C 295.515625 61.070312 294.015625 62.734375 288.273438 62.816406 C 286.859375 62.816406 285.359375 62.984375 283.945312 63.234375 C 280.949219 63.816406 279.449219 62.734375 279.203125 59.570312 C 279.117188 58.40625 279.203125 57.074219 279.203125 56.15625 Z M 264.636719 27.277344 C 266.882812 26.859375 269.296875 26.941406 271.542969 27.359375 C 275.871094 28.191406 277.453125 30.355469 277.371094 34.765625 C 277.371094 38.761719 273.625 44.171875 269.960938 45.503906 C 269.378906 45.671875 268.296875 45.585938 267.882812 45.171875 C 265.21875 42.589844 262.304688 40.261719 260.308594 37.265625 C 257.394531 32.9375 259.558594 28.273438 264.636719 27.277344 Z M 261.972656 48.832031 C 263.136719 49.914062 263.804688 51.664062 264.96875 52.746094 C 267.464844 55.074219 271.128906 54.492188 273.625 51.246094 C 273.375 52.746094 273.207031 53.910156 272.957031 55.324219 C 269.464844 55.324219 266.132812 55.410156 262.722656 55.242188 C 262.222656 55.242188 261.640625 54.578125 261.222656 54.078125 C 259.058594 51.746094 256.976562 49.332031 254.648438 47.167969 C 253.648438 46.253906 252.152344 45.921875 250.734375 45.671875 C 248.90625 45.335938 246.988281 45.253906 245.160156 44.589844 C 246.574219 44.503906 247.988281 44.339844 249.488281 44.253906 C 245.492188 38.59375 246.492188 33.019531 252.316406 27.609375 C 252.648438 27.691406 252.984375 27.859375 253.234375 27.941406 C 252.566406 29.523438 252.066406 31.269531 251.152344 32.601562 C 247.40625 38.011719 249.238281 42.175781 255.644531 43.839844 C 258.058594 44.503906 259.972656 47.003906 261.972656 48.832031 Z M 264.300781 13.707031 C 259.726562 11.878906 254.898438 13.542969 250.570312 15.789062 C 232.757812 25.027344 220.355469 48.582031 222.9375 68.308594 C 223.019531 68.976562 223.101562 69.640625 223.269531 70.308594 C 225.183594 76.964844 224.183594 76.632812 218.773438 78.132812 C 196.882812 84.207031 174.910156 90.117188 153.019531 96.027344 C 150.523438 96.691406 147.859375 96.777344 145.195312 96.859375 C 142.863281 96.941406 141.699219 95.609375 142.449219 93.28125 C 150.191406 70.722656 124.054688 48.832031 101.832031 54.328125 C 97.585938 55.410156 93.757812 58.320312 89.84375 60.484375 C 88.597656 61.234375 87.515625 62.316406 86.101562 62.984375 C 88.265625 57.324219 92.09375 53.410156 97.503906 50.914062 C 104.992188 47.5 113.234375 46.253906 120.476562 49.332031 C 132.628906 54.492188 143.863281 52.328125 155.683594 49 C 172.328125 44.339844 189.226562 40.511719 206.039062 36.515625 C 208.871094 35.847656 211.78125 35.265625 214.695312 35.433594 C 219.855469 35.683594 223.601562 33.769531 226.429688 29.441406 C 230.675781 23.113281 235.921875 17.621094 242.496094 13.625 C 253.066406 7.132812 263.886719 5.886719 274.875 12.875 C 275.289062 13.125 275.707031 13.542969 276.121094 13.875 C 272.210938 13.542969 268.464844 15.289062 264.300781 13.707031 Z M 276.203125 141.222656 C 272.375 133.980469 272.957031 126.574219 275.121094 119.164062 C 276.203125 115.253906 278.121094 111.507812 279.617188 107.679688 C 279.035156 121.996094 282.449219 135.644531 285.195312 149.878906 C 280.699219 148.046875 278.203125 144.96875 276.203125 141.222656 Z M 304.585938 148.046875 C 304.421875 149.296875 303.171875 150.460938 302.339844 151.625 C 301.425781 150.878906 300.257812 150.378906 299.675781 149.460938 C 296.179688 143.136719 295.097656 136.0625 294.433594 129.070312 C 293.601562 119.664062 293.433594 110.257812 295.765625 101.019531 C 296.597656 97.609375 297.597656 94.277344 301.589844 92.449219 C 301.589844 94.945312 301.507812 97.023438 301.589844 99.1875 C 302.421875 113.421875 303.339844 127.65625 304.253906 141.886719 C 304.421875 143.800781 304.835938 145.964844 304.585938 148.046875 Z M 288.855469 30.773438 C 289.105469 31.019531 289.273438 31.1875 289.523438 31.4375 C 290.605469 32.9375 291.769531 34.351562 292.683594 35.933594 C 294.515625 39.179688 293.433594 41.09375 289.6875 41.34375 C 288.605469 41.425781 287.441406 41.175781 285.859375 41.09375 C 286.859375 37.429688 286.191406 33.683594 288.855469 30.773438 Z M 234.921875 110.59375 C 234.839844 115.085938 232.757812 117.75 229.429688 117.667969 C 225.347656 117.582031 221.769531 113.921875 221.855469 110.007812 C 221.9375 106.179688 225.015625 103.019531 228.59375 103.019531 C 232.339844 103.101562 235.003906 106.265625 234.921875 110.59375 Z M 139.035156 132.066406 C 139.035156 127.738281 142.28125 123.910156 146.109375 123.910156 C 149.941406 123.910156 152.601562 126.574219 152.6875 130.570312 C 152.769531 135.0625 149.191406 139.390625 145.445312 139.390625 C 141.699219 139.308594 139.035156 136.226562 139.035156 132.066406 Z M 139.035156 132.066406 " fill-opacity="1" fill-rule="nonzero"/><g fill="#000000" fill-opacity="1"><g transform="translate(352.700314, 353.693921)"><g><path d="M 0.125 0 C 0.113281 0 0.101562 -0.00390625 0.09375 -0.015625 C 0.0820312 -0.0234375 0.078125 -0.0351562 0.078125 -0.046875 C 0.078125 -0.0664062 0.0820312 -0.0820312 0.09375 -0.09375 C 0.101562 -0.101562 0.113281 -0.109375 0.125 -0.109375 C 0.144531 -0.109375 0.160156 -0.101562 0.171875 -0.09375 C 0.179688 -0.0820312 0.1875 -0.0664062 0.1875 -0.046875 C 0.1875 -0.0351562 0.179688 -0.0234375 0.171875 -0.015625 C 0.160156 -0.00390625 0.144531 0 0.125 0 Z M 0.125 0 "/></g></g></g></svg>